<svg width="24" height="24" viewBox="0 0 24 24" fill="none" xmlns="http://www.w3.org/2000/svg">
<path d="M10.1103 11.1494H7.4603C6.8303 11.1494 6.32031 11.6594 6.32031 12.2894V17.4094H10.1103V11.1494V11.1494Z" stroke="#F5A302" stroke-width="1.5" stroke-miterlimit="10" stroke-linecap="round" stroke-linejoin="round"/>
<path d="M12.7616 6.59961H11.2415C10.6115 6.59961 10.1016 7.10962 10.1016 7.73962V17.3997H13.8916V7.73962C13.8916 7.10962 13.3916 6.59961 12.7616 6.59961Z" stroke="#F5A302" stroke-width="1.5" stroke-miterlimit="10" stroke-linecap="round" stroke-linejoin="round"/>
<path d="M16.5484 12.8496H13.8984V17.3997H17.6884V13.9896C17.6784 13.3596 17.1684 12.8496 16.5484 12.8496Z" stroke="#F5A302" stroke-width="1.5" stroke-miterlimit="10" stroke-linecap="round" stroke-linejoin="round"/>
<path d="M9 22H15C20 22 22 20 22 15V9C22 4 20 2 15 2H9C4 2 2 4 2 9V15C2 20 4 22 9 22Z" stroke="#F5A302" stroke-width="1.5" stroke-linecap="round" stroke-linejoin="round"/>
</svg>
